# xmcd
#
# Track frame offsets: 
#        150
#        26861
#        53347
#        77431
#        103159
#        131567
#        151489
#        184647
#        199008
#        227774
#
# Disc length: 3321 seconds
#
# Revision: 1
# Processed by: cddbd v1.5.2PL0 Copyright (c) Steve Scherf et al.
# Submitted via: ExactAudioCopy v1.0b1
#
DISCID=770cf70a
DTITLE=Trike - Interflug
DYEAR=2002
DGENRE=Electronic
TTITLE0=Purple Haze
TTITLE1=Idol
TTITLE2=WMF 0:00 AM
TTITLE3=Last Step
TTITLE4=Dativ
TTITLE5=Jetlag
TTITLE6=22 kHz
TTITLE7=Syntethic
TTITLE8=Spreewald
TTITLE9=Chilblain
EXTD=
EXTT0=
EXTT1=
EXTT2=
EXTT3=
EXTT4=
EXTT5=
EXTT6=
EXTT7=
EXTT8=
EXTT9=
PLAYORDER=
